# xmcd
#
# Track frame offsets:
#	150
#	15149
#	35584
#	52859
#	70609
#	88740
#	101541
#	116356
#	133127
#	150999
#	167952
#	184485
#	203865
#	221075
#	236925
#	250107
#	269653
#	287206
#	305226
#	321256
#
# Disc length: 4537
#
# Revision: 4
# Processed by: cddbd v1.5.1PL0 Copyright (c) Steve Scherf et al.
# Submitted via: CDex 1.40Beta9
# Normalized: r2:TDELIM( - );r3:TSWAP
#
DISCID=2811b714
DTITLE=Promo Only - Rhythm Radio 1998-02
DYEAR=1998
DGENRE=Rhythmic Soul
TTITLE0=N Sync - I Want You Back
TTITLE1=Mack 10 - Only In California
TTITLE2=Wild Child - Renegade Master
TTITLE3=Hollister, Dave Feat. Redman and Erick Sermon - The Weekend
TTITLE4=She Moves - It's Your Love
TTITLE5=EPMD - Do It Again
TTITLE6=Aqua - Turn back Time
TTITLE7=Jay-Z Feat. Blackstreet - The City Is Mine
TTITLE8=All Saints - I Know where It's At (Cutfather and Jo's Alternative Mix)
TTITLE9=Nas Escobar, Foxy Brown, AZ and Nature - Phone Tap
TTITLE10=Jimmy Ray - Are You Jimmy Ray? (Xenomania Radio Edit)
TTITLE11=LSG - Curious
TTITLE12=Alex Braydon - True (Dance Mix Radio Edit)
TTITLE13=Lord Tariq and Peter Gunz - Deja Vu
TTITLE14=Jock Jams All Stars - Son Of Jock Jam
TTITLE15=Missy "Misdemeanor" Elliott - Beep Me 911
TTITLE16=Leann Rimes - How Do I Live (Extended Dance Radio Mix)
TTITLE17=WC - Just Clownin'
TTITLE18=Brooklyn Bounce - Get Ready to Bounce
TTITLE19=Lost Boyz - What's Wrong
EXTD=YEAR: 1998 ID3G: 118
EXTT0=
EXTT1=
EXTT2=
EXTT3=
EXTT4=
EXTT5=
EXTT6=
EXTT7=
EXTT8=
EXTT9=
EXTT10=
EXTT11=
EXTT12=
EXTT13=
EXTT14=
EXTT15=
EXTT16=
EXTT17=
EXTT18=
EXTT19=
PLAYORDER=
